<svg width="14" height="14" viewBox="0 0 14 14" fill="none" xmlns="http://www.w3.org/2000/svg">
<g clip-path="url(#clip0_30_190)">
<path d="M13.9635 5.09686C13.9187 4.95812 13.8341 4.83563 13.7202 4.74465C13.6063 4.65368 13.4681 4.59824 13.3229 4.58524L9.28215 4.21831L7.68433 0.478407C7.56647 0.204334 7.29817 0.0269775 7.00006 0.0269775C6.70195 0.0269775 6.43362 0.204361 6.31582 0.479091L4.71798 4.21833L0.67655 4.58524C0.531519 4.59853 0.393577 4.65409 0.279825 4.74503C0.166074 4.83598 0.0815158 4.95831 0.0366352 5.09686C-0.0555429 5.38036 0.0295804 5.6913 0.254215 5.8873L3.30859 8.56596L2.40792 12.5334C2.34202 12.8251 2.45522 13.1266 2.69728 13.3016C2.82735 13.3956 2.97958 13.4434 3.13307 13.4434C3.26541 13.4434 3.39667 13.4078 3.51452 13.3373L7.00006 11.2541L10.4843 13.3373C10.7393 13.4907 11.0607 13.4766 11.3022 13.3016C11.4204 13.216 11.5109 13.0976 11.5624 12.961C11.6138 12.8244 11.624 12.6757 11.5916 12.5334L10.6909 8.56596L13.7453 5.88785C13.8552 5.79189 13.9344 5.66576 13.9732 5.52513C14.012 5.3845 14.0086 5.23558 13.9635 5.09686Z" fill="#FFC107"/>
</g>
<defs>
<clipPath id="clip0_30_190">
<rect width="14" height="14" fill="white"/>
</clipPath>
</defs>
</svg>
